<?xml version="1.0" encoding="utf-8"?>
<!-- Generator: Adobe Illustrator 24.0.1, SVG Export Plug-In . SVG Version: 6.00 Build 0)  -->
<svg version="1.1" id="Capa_1" xmlns="http://www.w3.org/2000/svg" xmlns:xlink="http://www.w3.org/1999/xlink" x="0px" y="0px"
	 viewBox="0 0 66 66" style="enable-background:new 0 0 66 66;" xml:space="preserve">
<style type="text/css">
	.st0{clip-path:url(#SVGID_2_);fill:#F36E1F;}
</style>
<g>
	<defs>
		<rect id="SVGID_1_" width="66" height="66"/>
	</defs>
	<clipPath id="SVGID_2_">
		<use xlink:href="#SVGID_1_"  style="overflow:visible;"/>
	</clipPath>
	<path class="st0" d="M0,33C0,14.7,14.9,0,33,0c18.1,0,33,14.9,33,33S51.1,66,33,66C14.9,66,0,51.3,0,33z M33,54.8
		c12.1,0,21.8-9.9,21.8-21.8S44.9,11.2,33,11.2c-11.9,0-21.8,9.9-21.8,21.8C11.2,44.9,21.1,54.8,33,54.8L33,54.8z M33,44.2
		c6.2,0,11.5-5,11.5-11.5c0-6.2-5-11.5-11.5-11.5c-6.2,0-11.5,5-11.5,11.5C21.5,39,26.8,44.2,33,44.2z"/>
</g>
</svg>
